<?xml version="1.0" standalone="no"?><!DOCTYPE svg PUBLIC "-//W3C//DTD SVG 1.1//EN" "http://www.w3.org/Graphics/SVG/1.1/DTD/svg11.dtd"><svg t="1533289864798" class="icon" style="" viewBox="0 0 1024 1024" version="1.1" xmlns="http://www.w3.org/2000/svg" p-id="1411" xmlns:xlink="http://www.w3.org/1999/xlink" width="64" height="64"><defs><style type="text/css"></style></defs><path d="M161.223638 670.553882l-2.966396-145.798378a71.341831 71.341831 0 0 1 57.251449-44.495944L181.246813 459.791425l-22.692931-8.305909 10.382387-34.261878 57.548088-6.822711 35.003476-74.159907c48.35226-95.221321 334.609502-97.446118 400.4635 0l24.02781 69.265353 72.676709 9.492468 1.334878 45.385864-49.983778 10.234067C741.599073 489.455388 766.071842 509.478563 757.914253 544.482039l2.076477 126.071843z m102.933952-192.815759a2470.414832 2470.414832 0 0 1 382.071842 0l-29.663963-111.091541c-50.132097-67.782155-274.539977-83.207416-314.141367 0z" fill="#afcd50" p-id="1412"></path><path d="M236.125145 601.881808a31.88876 31.88876 0 1 1 44.495944 0 31.88876 31.88876 0 0 1-44.495944 0zM633.177289 601.881808a31.88876 31.88876 0 1 1 44.495944 0 31.88876 31.88876 0 0 1-44.495944 0z" fill="#afcd50" p-id="1413"></path><path d="M217.436848 688.20394v44.495944a8.750869 8.750869 0 0 0 8.750869 8.602549h51.911935a8.750869 8.750869 0 0 0 8.750869-8.602549v-44.495944a8.899189 8.899189 0 0 0-8.750869-8.750869h-51.911935a8.899189 8.899189 0 0 0-8.750869 8.750869zM629.024334 688.20394v44.495944a8.602549 8.602549 0 0 0 8.750869 8.899189h51.763615a8.602549 8.602549 0 0 0 8.750869-8.602549v-44.495945a8.750869 8.750869 0 0 0-8.750869-8.750869H637.775203a8.750869 8.750869 0 0 0-8.750869 8.45423z" fill="#afcd50" p-id="1414"></path><path d="M255.110081 759.545771c-23.73117 0-48.35226-17.353418-48.352259-40.787949v-29.663963h-42.419467a13.052144 13.052144 0 0 1-9.344149-3.856316 13.052144 13.052144 0 0 1-3.856315-9.344148v-132.449594a69.561993 69.561993 0 0 1 38.118192-61.849363l7.860951-3.856315-25.066049-5.042874a11.865585 11.865585 0 0 1-6.674392-3.559675l-2.224797-1.186559a40.04635 40.04635 0 0 1-8.15759-29.663963 55.174971 55.174971 0 0 1 8.30591-27.587485 13.052144 13.052144 0 0 1 8.750869-5.636153l59.327926-9.937428 16.463499-47.165701v-0.889919a144.01854 144.01854 0 0 1 109.904983-86.470452l10.530707-2.076477 12.013905-65.260719a14.831981 14.831981 0 0 1 13.942062-11.568945h123.847045a14.831981 14.831981 0 0 1 14.090383 11.717265l11.865585 66.298957h3.263036c54.581692 10.234067 103.82387 33.816918 127.110081 86.767092a2.076477 2.076477 0 0 1 0 0.889919l16.908459 48.500579 2.076477-1.038239a14.831981 14.831981 0 0 1 5.191194 0l59.327926 9.937428a13.793743 13.793743 0 0 1 8.750869 5.487833 57.844728 57.844728 0 0 1 8.454229 27.587486 41.826188 41.826188 0 0 1-8.30591 29.663963l-1.038238 1.186558a12.755504 12.755504 0 0 1-6.822712 3.559676l-29.663963 6.081112 5.784473 2.818077a69.561993 69.561993 0 0 1 38.118193 61.849362v132.449595a13.052144 13.052144 0 0 1-13.052144 13.200463H719.351101v32.1854a12.162225 12.162225 0 0 1 0 3.263036 45.385863 45.385863 0 0 1-48.05562 34.410197c-26.697567 0-53.395133-8.30591-55.91657-41.232909v-26.994206H311.471611v27.142526a12.162225 12.162225 0 0 1 0 3.114716c-7.564311 27.884125-27.439166 38.563152-56.36153 39.008112z m0-26.400927c14.831981 0 22.544612-3.263036 26.697567-10.382387l2.818076-7.564311V689.687138h-51.615295v29.663963a21.654693 21.654693 0 0 0 22.247972 13.793743z m415.295481 0c11.272306 0 17.205098-3.263036 20.319815-8.45423l1.928157-4.894554v-29.663963h-51.318656v26.994207l1.631518 6.971031c3.114716 5.932793 10.382387 8.750869 27.884125 9.047509z m32.482039-69.858633H748.718424v-118.655852c0-22.989571-14.831981-36.190035-44.495944-49.093858a13.052144 13.052144 0 0 1-7.119351-9.047509l-44.495945-128.889919-5.932792-11.865585c-33.371958-56.21321-113.909618-66.447277-195.040557-66.447277s-140.607184 10.382387-171.457705 66.447277l-5.636153 11.865585-44.495945 128.889919a12.755504 12.755504 0 0 1-7.26767 7.86095c-29.663963 12.903824-44.495944 26.104287-44.495945 49.093859v118.655851h45.830823z m-437.543453-28.032445a54.285052 54.285052 0 1 1 54.136733-54.285052 54.285052 54.285052 0 0 1-53.691773 54.285052z m390.377752 0a54.285052 54.285052 0 1 1 54.136733-54.285052 54.285052 54.285052 0 0 1-53.691773 54.285052z m-389.932792-26.252607A28.032445 28.032445 0 1 0 237.311703 580.968714a28.032445 28.032445 0 0 0 28.477405 28.032445z m390.377752 0a28.032445 28.032445 0 1 0-28.032445-28.032445 28.032445 28.032445 0 0 0 28.032445 28.032445zM266.975666 497.316338a13.200463 13.200463 0 0 1-13.497103-17.501738L292.783314 370.799537c23.434531-61.256083 106.493627-79.054461 177.983778-75.198147s149.803013 29.663963 161.965237 75.643106l31.74044 109.163383a13.200463 13.200463 0 0 1-13.793742 16.76014 2386.169177 2386.169177 0 0 0-383.703361 0.148319z m366.943222-27.587485L608.11124 378.363847c-6.822711-26.400927-65.260718-52.653534-138.085748-56.36153s-136.00927 14.831981-152.324449 58.141368l-32.03708 88.991889 28.329085-2.076478q22.692932-1.334878 45.385863-2.224797l36.931634-1.186559-52.505215-43.012746a13.052144 13.052144 0 0 1-1.779838-18.539977 13.348783 13.348783 0 0 1 18.391657-1.631518l75.643106 61.849363v0.741599h87.212051l-51.911935-41.826188a13.200463 13.200463 0 0 1 16.760139-20.764774L563.615295 462.757822l2.224798 2.966396h2.224797l36.486674 1.928157z m-459.791426-9.937428l8.899189-9.047508-8.602549 7.86095z m585.269989 0v-1.186558l-8.750869-7.86095z m-45.682503-4.449594l37.524913-7.267671a35.596756 35.596756 0 0 0 0-8.15759 36.041715 36.041715 0 0 0-1.334878-8.454229v-1.186559l-47.462341-7.86095z m-501.024334-1.334879l10.530707-29.663962-39.601391 5.784472v1.186559a35.745075 35.745075 0 0 0-1.483198 8.454229 24.32445 24.32445 0 0 0 0 7.712631z m303.610661-198.155272l-8.15759-45.534183h-99.967555l-8.30591 44.495944h4.449595c14.831981-1.186559 30.998841-1.631518 46.869061-1.631517 20.764774 0 42.716107 0 64.964079 2.818076z" fill="#afcd50" p-id="1415"></path></svg>