<?xml version="1.0" standalone="no"?><!DOCTYPE svg PUBLIC "-//W3C//DTD SVG 1.1//EN" "http://www.w3.org/Graphics/SVG/1.1/DTD/svg11.dtd"><svg t="1533290440724" class="icon" style="" viewBox="0 0 1024 1024" version="1.1" xmlns="http://www.w3.org/2000/svg" p-id="1176" xmlns:xlink="http://www.w3.org/1999/xlink" width="48" height="48"><defs><style type="text/css"></style></defs><path d="M278.635789 924.564211v-67.368422h24.252632a26.947368 26.947368 0 0 1 19.806316 7.68 26.947368 26.947368 0 0 1 7.949474 19.806316v11.991579A26.947368 26.947368 0 0 1 323.368421 916.210526a26.947368 26.947368 0 0 1-19.806316 7.814737z m15.629474-55.107369v43.11579h7.545263a11.856842 11.856842 0 0 0 9.701053-4.311579 16.707368 16.707368 0 0 0 3.503158-11.317895v-12.126316a16.572632 16.572632 0 0 0-3.503158-11.183158 11.722105 11.722105 0 0 0-9.701053-4.176842zM356.917895 924.564211h-15.494737v-67.368422h15.494737zM384 898.829474v25.734737h-15.629474v-67.368422h25.869474a28.698947 28.698947 0 0 1 18.458947 5.389474 17.515789 17.515789 0 0 1 6.871579 14.686316 13.473684 13.473684 0 0 1-2.829473 8.892632 18.458947 18.458947 0 0 1-8.084211 6.197894 14.416842 14.416842 0 0 1 8.892632 5.793684 18.189474 18.189474 0 0 1 2.694737 10.105264v4.311579a24.926316 24.926316 0 0 0 0.808421 5.928421 7.68 7.68 0 0 0 2.694736 4.850526v0.943158h-16.033684a8.353684 8.353684 0 0 1-2.425263-5.12 40.421053 40.421053 0 0 1 0-6.736842v-4.042106a9.431579 9.431579 0 0 0-2.56-7.275789 9.970526 9.970526 0 0 0-7.410526-2.56z m0-11.991579h10.374737a10.24 10.24 0 0 0 7.141052-2.15579 7.949474 7.949474 0 0 0 2.694737-6.197894 8.892632 8.892632 0 0 0-2.56-6.602106 9.701053 9.701053 0 0 0-7.141052-2.425263h-10.509474zM472.656842 895.865263h-26.947368v16.707369h30.989473v11.991579H431.157895v-67.368422h46.618947v11.991579h-31.528421v14.686316h26.947368zM536.522105 900.985263a24.791579 24.791579 0 0 1-7.006316 18.054737 26.947368 26.947368 0 0 1-18.863157 6.197895 26.947368 26.947368 0 0 1-20.210527-7.68 26.947368 26.947368 0 0 1-7.814737-19.806316v-13.473684a26.947368 26.947368 0 0 1 7.545264-19.806316 25.869474 25.869474 0 0 1 19.402105-7.68 26.947368 26.947368 0 0 1 19.402105 6.332632 26.947368 26.947368 0 0 1 7.68 18.189473h-15.090526a16.842105 16.842105 0 0 0-2.964211-9.701052 10.778947 10.778947 0 0 0-8.892631-3.098948 9.701053 9.701053 0 0 0-8.353685 4.176842 18.863158 18.863158 0 0 0-2.96421 11.183158v14.147369a18.054737 18.054737 0 0 0 3.233684 11.183158 11.183158 11.183158 0 0 0 9.162105 4.311578 9.835789 9.835789 0 0 0 7.949474-2.96421 17.246316 17.246316 0 0 0 2.694737-9.566316zM590.416842 869.456842h-17.650526v55.107369h-15.629474v-55.107369h-17.515789v-11.991579h50.795789zM613.322105 924.564211h-15.494737v-67.368422h15.494737zM680.286316 896.943158a27.890526 27.890526 0 0 1-7.814737 20.48 30.315789 30.315789 0 0 1-41.229474 0 28.025263 28.025263 0 0 1-7.949473-20.48v-11.991579a28.294737 28.294737 0 0 1 7.949473-20.48 28.564211 28.564211 0 0 1 49.044211 20.48z m-15.494737-12.126316a19.132632 19.132632 0 0 0-3.368421-11.722105 12.395789 12.395789 0 0 0-19.267369 0 19.536842 19.536842 0 0 0-3.368421 11.722105v12.126316a19.806316 19.806316 0 0 0 3.503158 11.991579 12.261053 12.261053 0 0 0 19.132632 0 19.671579 19.671579 0 0 0 3.368421-11.991579zM745.229474 924.564211h-15.494737l-24.522105-42.846316v42.711579h-15.898948v-67.368421h15.629474l24.522105 42.711579v-42.307369h15.494737z" fill="#3F4A5A" p-id="1177"></path><path d="M269.473684 229.052632h242.526316v161.68421H269.473684l-80.842105-80.842105 80.842105-80.842105z" fill="#84D7E8" p-id="1178"></path><path d="M458.105263 94.315789v498.526316h53.894737V40.421053a53.894737 53.894737 0 0 0-53.894737 53.894736z" fill="#3F4A5A" p-id="1179"></path><path d="M512 40.421053v552.421052h53.894737V94.315789a53.894737 53.894737 0 0 0-53.894737-53.894736z" fill="#333C49" p-id="1180"></path><path d="M754.526316 121.263158H458.105263v161.68421h296.421053l80.842105-80.842105-80.842105-80.842105z" fill="#E66847" p-id="1181"></path><path d="M619.789474 592.842105H404.210526a40.421053 40.421053 0 0 0-40.421052 40.421053v40.421053h296.421052v-40.421053a40.421053 40.421053 0 0 0-40.421052-40.421053z" fill="#262E37" p-id="1182"></path></svg>