<?xml version="1.0" standalone="no"?><!DOCTYPE svg PUBLIC "-//W3C//DTD SVG 1.1//EN" "http://www.w3.org/Graphics/SVG/1.1/DTD/svg11.dtd"><svg t="1533290035161" class="icon" style="" viewBox="0 0 1024 1024" version="1.1" xmlns="http://www.w3.org/2000/svg" p-id="1914" xmlns:xlink="http://www.w3.org/1999/xlink" width="64" height="64"><defs><style type="text/css"></style></defs><path d="M458.937209 514.285931a52.527786 52.527786 0 0 1 53.014154 51.944144A52.527786 52.527786 0 0 1 565.062791 514.285931h328.882303v-466.91365h56.224185v518.857794H565.062791a53.111428 53.111428 0 0 1-106.125582 0H73.830721V47.275007h56.224185v466.913651z" fill="#1296db" p-id="1915"></path><path d="M950.169279 567.008264v442.400684H78.208036V566.230075h380.729173a53.111428 53.111428 0 0 0 106.125582 0h385.106488z m-72.760711 366.138121v-56.126911h-62.936069v56.126911z m0-101.164624V674.787499h-62.936069v157.194262z m-110.600171 101.164624v-56.126911h-62.936069v56.126911z m0-101.164624v-56.029638h-62.936069v56.029638z m0-101.164624v-56.029638h-62.936069v56.029638z m-110.600171 202.329248v-56.126911h-284.039137v56.126911h284.039137z m0-101.164624v-56.029638H593.272157v56.029638z m0-101.164624v-56.029638H593.272157v56.029638zM545.608055 831.981761v-56.029638h-62.936069v56.029638z m0-101.164624v-56.029638h-62.936069v56.029638z m-110.600171 101.164624v-56.029638h-62.838795v56.029638z m0-101.164624v-56.029638h-62.838795v56.029638z m-110.502897 202.329248v-56.126911H261.568918v56.126911z m0-101.164624v-56.029638H261.568918v56.029638z m0-101.164624v-56.029638H261.568918v56.029638zM213.904816 933.146385v-56.126911H150.968747v56.126911z m0-101.164624v-56.029638H150.968747v56.029638z m0-101.164624v-56.029638H150.968747v56.029638z" fill="#1296db" p-id="1916"></path><path d="M950.169279 1024H78.208036a14.591052 14.591052 0 0 1-14.591051-14.591052V567.008264h29.182103v428.00418h842.779139v-428.00418h29.182104v442.400684a14.591052 14.591052 0 0 1-14.591052 14.591052z" fill="#1296db" p-id="1917"></path><path d="M213.904816 745.408188H150.968747a14.591052 14.591052 0 0 1-14.591052-14.591051v-56.029638a14.591052 14.591052 0 0 1 14.591052-14.591052h62.936069a14.591052 14.591052 0 0 1 14.591052 14.591052v56.029638a14.591052 14.591052 0 0 1-14.591052 14.591051z m-48.636838-29.182103h34.045787v-26.847535h-33.753966zM324.504987 745.408188H261.568918a14.591052 14.591052 0 0 1-14.591052-14.591051v-56.029638a14.591052 14.591052 0 0 1 14.591052-14.591052h62.936069a14.591052 14.591052 0 0 1 14.591052 14.591052v56.029638a14.591052 14.591052 0 0 1-14.591052 14.591051z m-48.636838-29.182103h33.753966v-26.847535H276.15997zM435.007884 745.408188h-62.838795a14.591052 14.591052 0 0 1-14.591052-14.591051v-56.029638a14.591052 14.591052 0 0 1 14.591052-14.591052h62.838795a14.591052 14.591052 0 0 1 14.591052 14.591052v56.029638a14.591052 14.591052 0 0 1-14.591052 14.591051z m-48.636838-29.182103h33.656692v-26.847535h-33.267597zM545.608055 745.408188h-62.936069a14.591052 14.591052 0 0 1-14.591051-14.591051v-56.029638a14.591052 14.591052 0 0 1 14.591051-14.591052H545.608055a14.591052 14.591052 0 0 1 14.591052 14.591052v56.029638a14.591052 14.591052 0 0 1-14.591052 14.591051z m-48.636838-29.182103h34.045787v-26.847535H496.971217zM656.208226 745.408188H593.272157a14.591052 14.591052 0 0 1-14.591051-14.591051v-56.029638a14.591052 14.591052 0 0 1 14.591051-14.591052h62.936069a14.591052 14.591052 0 0 1 14.591052 14.591052v56.029638a14.591052 14.591052 0 0 1-14.591052 14.591051z m-48.636838-29.182103h33.753966v-26.847535H607.863209zM766.808397 745.408188h-62.936069a14.591052 14.591052 0 0 1-14.591051-14.591051v-56.029638a14.591052 14.591052 0 0 1 14.591051-14.591052h62.936069a14.591052 14.591052 0 0 1 14.591052 14.591052v56.029638a14.591052 14.591052 0 0 1-14.591052 14.591051z m-48.636838-29.182103h33.753966v-26.847535h-33.462145zM213.904816 846.280992H150.968747a14.591052 14.591052 0 0 1-14.591052-14.591052v-55.737817a14.591052 14.591052 0 0 1 14.591052-14.591051h62.936069a14.591052 14.591052 0 0 1 14.591052 14.591051v56.029638A14.591052 14.591052 0 0 1 213.904816 846.280992z m-48.636838-29.182103h34.045787v-26.555714h-33.753966zM324.504987 846.280992H261.568918a14.591052 14.591052 0 0 1-14.591052-14.591052v-55.737817a14.591052 14.591052 0 0 1 14.591052-14.591051h62.936069a14.591052 14.591052 0 0 1 14.591052 14.591051v56.029638a14.591052 14.591052 0 0 1-14.591052 14.299231z m-48.636838-29.182103h33.753966v-26.555714H276.15997zM435.007884 846.280992h-62.838795a14.591052 14.591052 0 0 1-14.591052-14.591052v-55.737817a14.591052 14.591052 0 0 1 14.591052-14.591051h62.838795a14.591052 14.591052 0 0 1 14.591052 14.591051v56.029638a14.591052 14.591052 0 0 1-14.591052 14.299231z m-48.636838-29.182103h33.656692v-26.555714h-33.267597zM545.608055 846.280992h-62.936069a14.591052 14.591052 0 0 1-14.591051-14.591052v-55.737817a14.591052 14.591052 0 0 1 14.591051-14.591051H545.608055a14.591052 14.591052 0 0 1 14.591052 14.591051v56.029638A14.591052 14.591052 0 0 1 545.608055 846.280992z m-48.636838-29.182103h34.045787v-26.555714H496.971217zM656.208226 846.280992H593.272157a14.591052 14.591052 0 0 1-14.591051-14.591052v-55.737817a14.591052 14.591052 0 0 1 14.591051-14.591051h62.936069a14.591052 14.591052 0 0 1 14.591052 14.591051v56.029638a14.591052 14.591052 0 0 1-14.591052 14.299231z m-48.636838-29.182103h33.753966v-26.555714H607.863209zM766.808397 846.280992h-62.936069a14.591052 14.591052 0 0 1-14.591051-14.591052v-55.737817a14.591052 14.591052 0 0 1 14.591051-14.591051h62.936069a14.591052 14.591052 0 0 1 14.591052 14.591051v56.029638a14.591052 14.591052 0 0 1-14.591052 14.299231z m-48.636838-29.182103h33.753966v-26.555714h-33.462145zM877.408568 846.280992h-62.936069a14.591052 14.591052 0 0 1-14.591051-14.591052V674.787499a14.591052 14.591052 0 0 1 14.591051-14.591052h62.936069a14.591052 14.591052 0 0 1 14.591052 14.591052v157.194262a14.591052 14.591052 0 0 1-14.591052 14.299231z m-48.636838-29.182103h33.753966V689.37855h-33.462145zM213.904816 947.737437H150.968747a14.591052 14.591052 0 0 1-14.591052-14.591052v-56.126911a14.591052 14.591052 0 0 1 14.591052-14.591052h62.936069a14.591052 14.591052 0 0 1 14.591052 14.591052v56.126911a14.591052 14.591052 0 0 1-14.591052 14.591052z m-48.636838-29.182103h34.045787v-26.944809h-33.753966zM324.504987 947.737437H261.568918a14.591052 14.591052 0 0 1-14.591052-14.591052v-56.126911a14.591052 14.591052 0 0 1 14.591052-14.591052h62.936069a14.591052 14.591052 0 0 1 14.591052 14.591052v56.126911a14.591052 14.591052 0 0 1-14.591052 14.591052z m-48.636838-29.182103h33.753966v-26.944809H276.15997zM656.208226 947.737437h-284.039137a14.591052 14.591052 0 0 1-14.591052-14.591052v-56.126911a14.591052 14.591052 0 0 1 14.591052-14.591052h284.039137a14.591052 14.591052 0 0 1 14.591052 14.591052v56.126911a14.591052 14.591052 0 0 1-14.591052 14.591052z m-269.448085-29.182103h254.857034v-26.944809h-254.857034zM766.808397 947.737437h-62.936069a14.591052 14.591052 0 0 1-14.591051-14.591052v-56.126911a14.591052 14.591052 0 0 1 14.591051-14.591052h62.936069a14.591052 14.591052 0 0 1 14.591052 14.591052v56.126911a14.591052 14.591052 0 0 1-14.591052 14.591052z m-48.636838-29.182103h33.753966v-26.944809h-33.462145zM877.408568 947.737437h-62.936069a14.591052 14.591052 0 0 1-14.591051-14.591052v-56.126911a14.591052 14.591052 0 0 1 14.591051-14.591052h62.936069a14.591052 14.591052 0 0 1 14.591052 14.591052v56.126911a14.591052 14.591052 0 0 1-14.591052 14.591052z m-48.636838-29.182103h33.753966v-26.944809h-33.462145zM511.951363 632.862544a67.507932 67.507932 0 0 1-65.951553-52.041417H73.830721a14.591052 14.591052 0 0 1-14.591052-14.591052V47.275007a14.591052 14.591052 0 0 1 14.591052-14.591051h56.224185v29.182103H88.421773v489.772964h370.515436a14.591052 14.591052 0 0 1 14.591052 14.591052 38.909471 38.909471 0 0 0 76.943478 0 14.591052 14.591052 0 0 1 14.591052-14.591052h370.515436V61.866059h-41.633133v-29.182103h56.224185a14.591052 14.591052 0 0 1 14.591052 14.591051v518.955068a14.591052 14.591052 0 0 1-14.591052 14.591052H578.00019a68.091574 68.091574 0 0 1-66.048827 52.041417z" fill="#1296db" p-id="1918"></path><path d="M526.15332 566.230075h-29.182103a37.936734 37.936734 0 0 0-38.909471-37.353092H130.054906a14.591052 14.591052 0 0 1-14.591051-14.591052V14.591052A14.591052 14.591052 0 0 1 130.054906 0h381.896457v29.182103H144.645958v470.512777h314.291251A67.118837 67.118837 0 0 1 526.15332 566.230075z" fill="#1296db" p-id="1919"></path><path d="M511.951363 580.821127a14.591052 14.591052 0 0 1-14.591051-14.591052V14.591052a14.591052 14.591052 0 0 1 14.591051-14.591052h381.993731a14.591052 14.591052 0 0 1 14.591051 14.591052v499.694879a14.591052 14.591052 0 0 1-14.591051 14.591052H565.062791a38.034008 38.034008 0 0 0-38.909471 37.353092 14.591052 14.591052 0 0 1-14.201957 14.591052zM526.15332 29.182103v482.380165a68.091574 68.091574 0 0 1 38.909471-11.867388h314.291251V29.182103zM248.242424 69.064311h143.089579v29.182103H248.242424zM193.963712 190.656407h251.647003v29.182103H193.963712zM193.963712 262.93075h251.647003v29.182103H193.963712zM193.963712 335.302365h251.647003v29.182104H193.963712zM193.963712 407.673981h251.647003v29.182103H193.963712z" fill="#1296db" p-id="1920"></path><path d="M577.222001 190.656407h251.549729v29.182103H577.222001zM577.222001 115.269307h251.549729v29.182104H577.222001zM577.222001 262.93075h251.549729v29.182103H577.222001zM577.222001 335.302365h251.549729v29.182104H577.222001zM577.222001 407.673981h251.549729v29.182103H577.222001z" fill="#1296db" p-id="1921"></path></svg>