<?xml version="1.0" standalone="no"?><!DOCTYPE svg PUBLIC "-//W3C//DTD SVG 1.1//EN" "http://www.w3.org/Graphics/SVG/1.1/DTD/svg11.dtd"><svg t="1534315272398" class="icon" style="" viewBox="0 0 1024 1024" version="1.1" xmlns="http://www.w3.org/2000/svg" p-id="4339" xmlns:xlink="http://www.w3.org/1999/xlink" width="32" height="32"><defs><style type="text/css"></style></defs><path d="M947.477355 895.489453 76.524542 895.489453c-8.144418 0-15.756092-4.036936-20.325772-10.778947-4.566031-6.737146-5.49286-15.303624-2.475193-22.869078 53.321854-133.621485 163.484351-241.537455 294.128307-291.195781-54.120971-47.052988-86.240093-115.797665-86.240093-189.028096 0-138.065885 112.323881-250.389766 250.389766-250.389766s250.387333 112.323881 250.387333 250.389766c0 73.230432-32.11669 141.975108-86.237661 189.028096 130.64274 49.658326 240.80402 157.574296 294.12709 291.195781 3.017667 7.565454 2.085973 16.131932-2.480058 22.869078C963.232231 891.452518 955.618124 895.489453 947.477355 895.489453L947.477355 895.489453zM114.353028 846.390631l795.290976 0c-59.168661-119.317669-169.024647-211.144278-294.082087-243.633159-9.70981-2.522629-16.903073-10.699887-18.177767-20.648094-1.268612-9.95064 3.639202-19.67018 12.40029-24.554885 63.847809-35.572229 103.505627-102.987478 103.505627-175.936942 0-110.993237-90.295274-201.294592-201.28851-201.294592-110.998102 0-201.294592 90.301355-201.294592 201.294592 0 72.949464 39.657818 140.364713 103.50441 175.936942 8.762304 4.885921 13.674984 14.605462 12.401506 24.554885-1.273478 9.948207-8.46674 18.124249-18.178983 20.648094C283.377675 635.246353 173.520473 727.072962 114.353028 846.390631L114.353028 846.390631zM114.353028 846.390631" p-id="4340"></path></svg>